<svg width="16" height="17" viewBox="0 0 16 17" fill="none" xmlns="http://www.w3.org/2000/svg">
<rect y="0.5" width="16" height="16" rx="8" fill="#EA4C89"/>
<path d="M8.00001 12.6667C5.69882 12.6667 3.83334 10.8012 3.83334 8.5C3.83334 6.19881 5.69882 4.33333 8.00001 4.33333C10.3012 4.33333 12.1667 6.19881 12.1667 8.5C12.1642 10.8001 10.3001 12.6641 8.00001 12.6667ZM5.96668 11.2271L5.96459 11.2313C6.91586 11.9439 8.17055 12.1071 9.27251 11.6617C9.11456 10.8122 8.88042 9.9787 8.57293 9.17125C7.86665 9.4175 7.22093 9.81138 6.67876 10.3267C6.41156 10.5797 6.18025 10.868 5.99126 11.1838L5.98834 11.1883V11.1842L5.98084 11.1988L5.97584 11.2071L5.97293 11.2125L5.96584 11.2275L5.96668 11.2271ZM9.99126 8.93542C9.78612 8.93571 9.58122 8.94963 9.37793 8.97708C9.64342 9.71897 9.85236 10.4799 10.0029 11.2533C10.711 10.7429 11.1923 9.97659 11.3446 9.11708C10.9038 8.99546 10.4485 8.93394 9.99126 8.93417V8.93542ZM4.59043 8.48125V8.50458C4.59119 9.30733 4.87523 10.0841 5.39251 10.6979C6.06263 9.66271 7.05387 8.87595 8.21418 8.45833L8.26376 8.44417C8.19001 8.28125 8.12084 8.13583 8.05168 8C6.93998 8.31171 5.79164 8.47355 4.63709 8.48125H4.59043ZM9.86084 8.22875C10.3779 8.23066 10.8937 8.27778 11.4025 8.36958C11.376 7.66476 11.1295 6.98592 10.6975 6.42833C10.1934 6.99206 9.56604 7.43181 8.86418 7.71333L8.87626 7.70833L8.86334 7.71375C8.93793 7.86917 9.00334 8.01458 9.05793 8.14417C9.07084 8.175 9.08168 8.20167 9.09168 8.2275L9.10876 8.26917C9.35849 8.24146 9.60959 8.22796 9.86084 8.22875ZM6.49043 5.44875C5.58431 5.89599 4.92342 6.72233 4.68626 7.70458C5.65725 7.68958 6.62358 7.56689 7.56751 7.33875H7.57293H7.57918L7.58334 7.33333L7.60584 7.32792H7.60834L7.62501 7.32458H7.62876H7.63168L7.64043 7.32208L7.65709 7.31792L7.66668 7.31375L7.67584 7.31125H7.68001H7.68418C7.12876 6.33333 6.55376 5.53625 6.49001 5.44875H6.49043ZM8.00001 5.09957C7.77192 5.09901 7.54432 5.12064 7.32043 5.16417C7.75693 5.76899 8.15748 6.39897 8.52001 7.05083C9.16923 6.81961 9.74825 6.42565 10.2017 5.90667C9.58613 5.38608 8.80618 5.10017 8.00001 5.09957Z" fill="white"/>
</svg>
