<?xml version="1.0" encoding="UTF-8"?>
<!DOCTYPE svg PUBLIC "-//W3C//DTD SVG 1.1//EN" "http://www.w3.org/Graphics/SVG/1.1/DTD/svg11.dtd">
<!-- Creator: CorelDRAW 2020 (64-Bit) -->
<svg xmlns="http://www.w3.org/2000/svg" xml:space="preserve" width="51.2908mm" height="10.5373mm" version="1.1" style="shape-rendering:geometricPrecision; text-rendering:geometricPrecision; image-rendering:optimizeQuality; fill-rule:evenodd; clip-rule:evenodd"
viewBox="0 0 14559.12 2991.06"
 xmlns:xlink="http://www.w3.org/1999/xlink"
 xmlns:xodm="http://www.corel.com/coreldraw/odm/2003">
 <defs>
  <style type="text/css">
   <![CDATA[
    .fil0 {fill:#0F3333;fill-rule:nonzero}
    .fil2 {fill:#6A8663;fill-rule:nonzero}
    .fil1 {fill:#E3DD50;fill-rule:nonzero}
   ]]>
  </style>
 </defs>
 <g id="Layer_x0020_1">
  <metadata id="CorelCorpID_0Corel-Layer"/>
  <g id="_2016942358768">
   <g>
    <polygon class="fil0" points="3619.46,1146.97 3745.23,1117.39 3745.23,318.54 3619.46,288.79 3619.46,207.36 4026.28,200 4026.28,288.79 3900.7,318.54 3900.7,1117.39 4026.28,1146.97 4026.28,1235.62 3619.46,1235.62 "/>
    <polygon class="fil0" points="4847.44,1146.97 4847.44,1235.62 4447.86,1235.62 4447.86,1146.97 4573.86,1117.39 4573.86,318.54 4447.86,288.79 4447.86,207.36 4758.68,200 5246.91,1027.24 5246.91,318.54 5121.22,288.79 5121.22,207.36 5505.67,200 5505.67,288.79 5380.06,318.54 5380.06,1235.62 5195.16,1235.62 4706.9,420.25 4706.9,1117.39 "/>
    <polygon class="fil0" points="6534.27,651.3 6534.27,769.53 6193.9,769.53 6193.9,1117.45 6341.88,1146.94 6341.88,1235.59 5912.94,1235.59 5912.94,1146.94 6038.75,1117.45 6038.75,318.48 5912.94,288.77 5912.94,207.33 6193.9,200.06 6645.12,200.06 6645.12,444.29 6548.98,444.29 6511.93,318.48 6193.9,318.48 6193.9,651.3 "/>
    <polygon class="fil0" points="7059.55,1146.97 7185.35,1117.39 7185.35,318.54 7059.55,288.79 7059.55,207.36 7466.39,200 7466.39,288.79 7340.62,318.54 7340.62,1117.39 7466.39,1146.97 7466.39,1235.62 7059.55,1235.62 "/>
    <polygon class="fil0" points="8287.53,1146.97 8287.53,1235.62 7888.09,1235.62 7888.09,1146.97 8013.75,1117.39 8013.75,318.54 7888.09,288.79 7888.09,207.36 8198.68,200 8687.11,1027.24 8687.11,318.54 8561.33,288.79 8561.33,207.36 8945.87,200 8945.87,288.79 8820.27,318.54 8820.27,1235.62 8635.19,1235.62 8146.91,420.25 8146.91,1117.39 "/>
    <polygon class="fil0" points="9360.44,1146.97 9486.1,1117.39 9486.1,318.54 9360.44,288.79 9360.44,207.36 9767.26,200 9767.26,288.79 9641.37,318.54 9641.37,1117.39 9767.26,1146.97 9767.26,1235.62 9360.44,1235.62 "/>
    <polygon class="fil0" points="10322,1146.97 10469.92,1117.39 10469.92,318.54 10277.52,318.54 10240.62,466.34 10144.36,466.34 10144.36,200 10950.79,200 10950.79,466.34 10854.65,466.34 10817.64,318.54 10625.47,318.54 10625.47,1117.39 10773.16,1146.97 10773.16,1235.62 10322,1235.62 "/>
    <polygon class="fil0" points="11956.94,636.43 11956.94,754.85 11616.77,754.85 11616.77,1117.42 11956.94,1117.42 11986.58,969.33 12082.8,969.33 12082.8,1235.65 11335.61,1235.65 11335.61,1147 11461.42,1117.42 11461.42,318.54 11335.61,288.82 11335.61,207.27 11616.77,200.03 12067.9,200.03 12067.9,451.73 11971.68,451.73 11934.75,318.54 11616.77,318.54 11616.77,636.43 "/>
   </g>
   <g>
    <path class="fil1" d="M3771.55 2623.75c0,0 68.44,38.26 167.56,38.26 110.93,0 232.68,-55.12 232.68,-163.39 0,-234.21 -549.4,-136.68 -549.4,-500.58 0,-212.86 170.57,-302.7 360.81,-302.7 144.37,0 320.9,60.74 320.9,60.74l-7.55 258.42 -98.58 0 -51.97 -162.48c0,0 -77.69,-27.36 -161.26,-27.36 -137.02,0 -202.47,71.59 -202.47,147.38 0,231.48 548.01,143.55 548.01,485.87 0,228.11 -184.28,333.05 -397.25,333.05 -159.87,0 -313.55,-60.72 -313.55,-60.72l0 -266.34 121.75 0 30.34 159.84z"/>
    <path class="fil1" d="M4991.89 2243.33c0,273.75 98.78,418.69 296.68,418.69 197.76,0 319.88,-137.24 319.88,-426.41 0,-273.89 -106.64,-410.94 -304.6,-410.94 -197.9,0 -311.96,129.52 -311.96,418.66zm791.67 -15.44c0,334.81 -205.6,563.08 -502.48,563.08 -296.88,0 -463.96,-190.24 -463.96,-540.23 0,-334.78 190.21,-555.39 494.3,-555.39 297.03,0 472.14,205.14 472.14,532.54z"/>
    <polygon class="fil1" points="6863.37,2478.93 6970.25,2478.93 6970.25,2775.81 6232.05,2775.81 6232.05,2684.58 6361.77,2654.04 6361.77,1832.05 6232.05,1801.85 6232.05,1717.94 6650.54,1710.22 6650.54,1801.85 6521.41,1832.05 6521.41,2654.04 6833.23,2654.04 "/>
    <path class="fil1" d="M8263.83 2342.05c0,281.61 -98.98,448.97 -418.86,448.97 -296.32,0 -403.22,-144.6 -403.22,-426.35l0 -532.54 -129.47 -30.34 0 -83.91 434.13 -7.69 0 91.6 -144.45 30.34 0 532.54c0,228.25 75.99,297.22 250.73,297.22 190.58,0 251.47,-83.71 251.47,-319.85l0 -509.92 -144.94 -30.34 0 -83.91 434.13 -7.69 0 91.6 -129.52 30.34 0 509.92z"/>
    <polygon class="fil1" points="8955.92,2684.58 9108.01,2654.04 9108.01,1832.2 8910.25,1832.2 8872.21,1984.28 8773.23,1984.28 8773.23,1710.22 9602.65,1710.22 9602.65,1984.28 9503.87,1984.28 9465.78,1832.2 9267.71,1832.2 9267.71,2654.04 9420.16,2684.58 9420.16,2776.01 8955.92,2776.01 "/>
    <polygon class="fil1" points="9990.71,2684.58 10119.67,2654.04 10119.67,1832.2 9990.71,1801.79 9990.71,1717.94 10409.34,1710.22 10409.34,1801.79 10279.68,1832.2 10279.68,2654.04 10409.34,2684.58 10409.34,2776.01 9990.71,2776.01 "/>
    <path class="fil1" d="M11048.41 2243.33c0,273.75 98.78,418.69 296.4,418.69 198.05,0 319.85,-137.24 319.85,-426.41 0,-273.89 -106.53,-410.94 -304.43,-410.94 -197.76,0 -311.81,129.52 -311.81,418.66zm791.53 -15.44c0,334.81 -205.68,563.08 -502.71,563.08 -296.51,0 -463.93,-190.24 -463.93,-540.23 0,-334.78 190.24,-555.39 494.47,-555.39 296.88,0 472.16,205.14 472.16,532.54z"/>
    <polygon class="fil1" points="12706.92,2684.58 12706.92,2776.01 12295.98,2776.01 12295.98,2684.58 12425.5,2654.04 12425.5,1832.2 12295.98,1801.79 12295.98,1717.94 12615.54,1710.22 13117.68,2561.05 13117.68,1832.2 12988.36,1801.79 12988.36,1717.94 13384.22,1710.22 13384.22,1801.79 13254.7,1832.2 13254.7,2776.01 13064.52,2776.01 12562.52,1937.28 12562.52,2654.04 "/>
    <path class="fil1" d="M14000.41 2623.75c0,0 68.64,38.26 167.42,38.26 111.07,0 232.68,-55.12 232.68,-163.39 0,-234.21 -549.2,-136.68 -549.2,-500.58 0,-212.86 170.37,-302.7 360.55,-302.7 144.6,0 321.29,60.74 321.29,60.74l-7.75 258.42 -98.92 0 -51.58 -162.48c0,0 -77.75,-27.36 -161.26,-27.36 -137.07,0 -202.33,71.59 -202.33,147.38 0,231.48 547.81,143.55 547.81,485.87 0,228.11 -184.22,333.05 -397.25,333.05 -160.07,0 -313.55,-60.72 -313.55,-60.72l0 -266.34 121.55 0 30.54 159.84z"/>
   </g>
  </g>
  <path class="fil2" d="M554.23 1966.86c-133.13,5.14 -243.49,-29.89 -319.65,-102.78 -67.56,-65.09 -104.77,-158.16 -104.77,-262.25 0,-99.46 31.96,-177.66 83.48,-236.25 67.36,138.29 212.07,245.45 429.16,245.45 125.46,0 255.7,-53.9 399.64,-127 49.05,43.88 98.53,90.46 148.71,137.81 12.35,11.58 24.95,23.36 37.3,35.11 -23.25,14.28 -46.33,28.95 -69.26,43.43 -212.12,133.04 -412.55,258.56 -604.61,266.48zm379.34 -573.7c-108.15,51.95 -205.6,88.17 -291.12,88.17 -171.19,0 -280.14,-88.59 -322.86,-197.79 70.68,-36.96 154.22,-54.41 237.16,-54.41 129.24,0 252.89,66.96 376.82,164.04zm-291.12 -528.22c195.66,0 344.03,95.15 487.8,187.12 74.94,48.11 147.49,94.69 223.56,125.18 -83.48,39.46 -163.02,81.89 -239.69,122.6 -18.14,9.51 -36.19,19.22 -53.9,28.58 -158.16,-131.99 -319.39,-229.27 -503.47,-229.27 -94.78,0 -181.3,17.32 -256.43,49.14 15.16,-178.01 181.24,-283.34 342.13,-283.34zm568.02 -728.48c192.06,-25.72 368.39,22.99 496.66,137.64 119.3,106.39 185.75,261.74 182.35,425.75 -3.6,172.56 -95.49,308.35 -231.85,360.81 -17.06,4.77 -33.67,9.71 -50.33,14.9 -25.49,5.79 -51.72,8.52 -78.97,8.52 -85.84,0 -168.04,-41.58 -257.71,-96.68 160.95,-33.64 300.37,-151.41 300.37,-347.58 0,-137.64 -93.76,-221.43 -186.61,-243.41 -99.49,-23.42 -196.31,21.2 -241.22,111.13 -16.09,32.1 -3.07,70.88 28.98,87.14 32.1,15.84 71.02,2.9 86.94,-29.12 27.19,-54.24 79.88,-46.61 95.66,-42.86 39.94,9.45 86.52,45.76 86.52,117.12 0,157.4 -134.46,227.91 -267.67,227.91 -84.84,0 -167.11,-29.1 -226.23,-79.34 -66.93,-57.42 -102.27,-140.48 -102.27,-240.45 0,-202.98 160.55,-383.8 365.38,-411.48zm779.92 1006.15c318.46,0 466.66,254.65 466.66,426.95 0,197.45 -149.73,397.31 -435.23,397.31 -210.82,0 -398.7,-130.29 -577.7,-287.94 178.52,-101.28 361.38,-179.91 553.26,-172.38 36.02,1.53 65.94,-26.85 67.39,-62.53 1.28,-35.77 -26.77,-65.83 -62.53,-67.27 -236.68,-8.18 -452.78,89.67 -658.74,210.28 -21.46,-19.81 -42.55,-39.68 -63.78,-59.52 -38.58,-36.56 -76.81,-72.72 -115.05,-107.67 3.49,-1.7 6.95,-3.49 10.47,-5.54 145.73,-77.32 303.27,-161.31 472.96,-215.13 13.88,-3.58 27.76,-7.69 41.22,-12.26 96.43,-27.34 196.74,-44.28 301.08,-44.28zm31.42 953.81c366.85,0 564.93,-271.42 564.93,-526.86 0,-267.87 -227.96,-556.84 -596.35,-556.84 -24.53,0 -48.54,0.74 -72.3,2.3 61.65,-85.18 98.61,-192.68 101.08,-312.33 4.17,-202.19 -78,-393.51 -225.52,-525.44 -157.26,-140.28 -370.52,-200.15 -600.41,-169.32 -272.44,36.53 -477.87,268.81 -477.87,540 0,78.68 16.09,143.52 40.11,196.06 -36.19,-5.54 -73.58,-8.69 -113.03,-8.69 -232.53,0 -472.93,164.47 -472.93,439.75 0,16.69 0.82,33.38 2.7,50.07 -108.32,89.19 -172.21,220.41 -172.21,376.7 0,139.77 51.55,266.17 144.88,355.78 95.49,91.8 227.17,139.6 382.44,139.6 10.7,0 21.46,-0.17 32.27,-0.79 225.95,-9.37 440.09,-143.32 666.63,-285.39l0 828.37c-204.49,123.76 -415.36,229.81 -636.83,221.35 -34.57,-0.17 -66.02,27.02 -67.27,62.7 -1.28,35.77 26.71,65.83 62.42,67.19 10.05,0.43 19.76,0.43 29.63,0.43 252.55,0 479.94,-118.91 698.65,-252.43 8.69,-3.15 16.55,-7.83 23.02,-13.99 30.74,-19.05 61.48,-38.41 92.25,-57.57 212.07,-132.79 412.47,-258.56 604.52,-266.6 35.94,-1.45 63.53,-31.93 62.08,-67.36 -1.5,-36.11 -31.22,-64.38 -67.36,-62.16 -226.71,9.28 -441.2,143.86 -668.25,286.24 -0.94,0.6 -2.04,1.22 -3.15,2.04l0 -785c198.27,175.34 410.34,322.17 665.87,322.17z"/>
 </g>
</svg>
