<svg xmlns="http://www.w3.org/2000/svg" viewBox="0 0 450.75 223.13"><defs><style>.cls-1,.cls-2,.cls-3{fill-rule:evenodd;}.cls-2{fill:#00adee;}.cls-3{fill:#ffca05;}</style></defs><g id="Layer_2" data-name="Layer 2"><g id="Layer_1-2" data-name="Layer 1"><path class="cls-1" d="M76.42,161a15.12,15.12,0,0,0-1.74-5.43,16.56,16.56,0,0,0-3.44-4.39,15.53,15.53,0,0,0-10.45-4A15.87,15.87,0,0,0,55,148.27a15.49,15.49,0,0,0-4.79,2.94,16.56,16.56,0,0,0-3.44,4.39A15.11,15.11,0,0,0,45.08,161ZM60.79,182.71a19.49,19.49,0,0,1-7.71-1.55,19.63,19.63,0,0,1-10.53-10.51A18.87,18.87,0,0,1,41,163a19.23,19.23,0,0,1,1.55-7.7A20,20,0,0,1,46.77,149a19.89,19.89,0,0,1,14-5.77,19.14,19.14,0,0,1,7.66,1.55A19.51,19.51,0,0,1,74.72,149,20,20,0,0,1,79,155.29,19.23,19.23,0,0,1,80.5,163v1a7,7,0,0,1-.08,1H45.08a15,15,0,0,0,1.73,5.43,16.72,16.72,0,0,0,3.44,4.39A15.49,15.49,0,0,0,55,177.72a15.87,15.87,0,0,0,5.75,1.07,10.61,10.61,0,0,0,4.15-.84,10.79,10.79,0,0,0,3.47-2.34l2.8,2.79a15.2,15.2,0,0,1-4.64,3.14,14.32,14.32,0,0,1-5.78,1.17Zm40.86-.23a14.48,14.48,0,0,1-5.78-1.16,15.26,15.26,0,0,1-4.68-3.18A15,15,0,0,1,88,173.46a14.18,14.18,0,0,1-1.18-5.79V143.88h4v23.79a11.07,11.07,0,0,0,.84,4.28,10.57,10.57,0,0,0,2.3,3.47,10.39,10.39,0,0,0,3.44,2.3,10.9,10.9,0,0,0,11.9-2.3,11,11,0,0,0,2.33-3.47,10.57,10.57,0,0,0,.87-4.28V143.88h3.93V186a14.33,14.33,0,0,1-1.17,5.79,15,15,0,0,1-7.85,7.85,14.32,14.32,0,0,1-5.78,1.17v-3.93a10.52,10.52,0,0,0,4.23-.86,11.58,11.58,0,0,0,3.44-2.34,11.31,11.31,0,0,0,2.33-3.44,10.38,10.38,0,0,0,.87-4.24v-8.23a15.31,15.31,0,0,1-4.83,3.48,14.38,14.38,0,0,1-6,1.28Zm87.08-57.4h3.94v47.58a5.94,5.94,0,0,0,6,6v3.93a10,10,0,0,1-3.85-.76,9.34,9.34,0,0,1-3.14-2.11,10.65,10.65,0,0,1-2.11-3.17,9.57,9.57,0,0,1-.8-3.86V125.08Zm48.8,36a15.32,15.32,0,0,0-1.74-5.43,16.56,16.56,0,0,0-3.44-4.39,15.78,15.78,0,0,0-21,0,16.94,16.94,0,0,0-3.43,4.39,15.12,15.12,0,0,0-1.74,5.43ZM221.9,182.71a19.41,19.41,0,0,1-7.71-1.55,19.78,19.78,0,0,1-6.3-4.23,19.53,19.53,0,0,1-4.23-6.28,18.87,18.87,0,0,1-1.55-7.66,19.23,19.23,0,0,1,1.55-7.7,19.66,19.66,0,0,1,4.23-6.31,19.84,19.84,0,0,1,14-5.77,19.17,19.17,0,0,1,7.66,1.55,19.73,19.73,0,0,1,6.27,4.22,20.16,20.16,0,0,1,4.23,6.31,19.4,19.4,0,0,1,1.55,7.7v1a5.78,5.78,0,0,1-.08,1H206.18a15.06,15.06,0,0,0,1.74,5.43,17.11,17.11,0,0,0,3.43,4.39,15.59,15.59,0,0,0,4.81,2.94,15.77,15.77,0,0,0,5.74,1.07,10.65,10.65,0,0,0,4.15-.84,11.05,11.05,0,0,0,3.48-2.34l2.79,2.79a15.25,15.25,0,0,1-4.65,3.14,14.24,14.24,0,0,1-5.77,1.17Zm40.17-39.66a14.23,14.23,0,0,1,7.48,2,15,15,0,0,1,5.37,5.43,15,15,0,0,1,5.32-5.43,14.21,14.21,0,0,1,7.51-2,14.5,14.5,0,0,1,5.76,1.17,14.81,14.81,0,0,1,7.89,7.9,14.37,14.37,0,0,1,1.17,5.74v23.86h-4V157.86a10.72,10.72,0,0,0-10.81-10.8,11.11,11.11,0,0,0-4.26.83,10.73,10.73,0,0,0-3.47,2.3,10.66,10.66,0,0,0-3.14,7.67v23.86H273V157.86a10.45,10.45,0,0,0-.88-4.24,11.35,11.35,0,0,0-2.34-3.43,10.75,10.75,0,0,0-7.67-3.13,11.11,11.11,0,0,0-4.26.83,10.65,10.65,0,0,0-6.61,10v23.86h-3.94V157.86a14.39,14.39,0,0,1,1.19-5.74,14.87,14.87,0,0,1,3.16-4.72,15.08,15.08,0,0,1,4.69-3.18,14.27,14.27,0,0,1,5.77-1.17Zm81.66,18A15.52,15.52,0,0,0,342,155.6a16.56,16.56,0,0,0-3.44-4.39,15.53,15.53,0,0,0-10.45-4,15.83,15.83,0,0,0-5.75,1.07,15.66,15.66,0,0,0-4.8,2.94,16.69,16.69,0,0,0-3.42,4.39,14.94,14.94,0,0,0-1.75,5.43ZM328.1,182.71a19.45,19.45,0,0,1-7.71-1.55,19.61,19.61,0,0,1-10.54-10.51A19,19,0,0,1,308.3,163a19.4,19.4,0,0,1,1.55-7.7,20.13,20.13,0,0,1,4.22-6.31,19.73,19.73,0,0,1,6.32-4.22,19.45,19.45,0,0,1,7.71-1.55,19.14,19.14,0,0,1,7.66,1.55A19.73,19.73,0,0,1,342,149a20.33,20.33,0,0,1,4.23,6.31,19.4,19.4,0,0,1,1.55,7.7v1a8.85,8.85,0,0,1-.07,1H312.38a14.88,14.88,0,0,0,1.75,5.43,16.86,16.86,0,0,0,3.42,4.39,15.66,15.66,0,0,0,4.8,2.94,15.83,15.83,0,0,0,5.75,1.07,10.76,10.76,0,0,0,7.62-3.18l2.79,2.79a15.08,15.08,0,0,1-4.64,3.14,14.31,14.31,0,0,1-5.77,1.17Zm44.18-39.66A19.09,19.09,0,0,1,380,144.6a19.75,19.75,0,0,1,10.49,10.54,19.3,19.3,0,0,1,1.55,7.7v18.88h-3.93V162.84a15.3,15.3,0,0,0-1.24-6.15,15.49,15.49,0,0,0-8.39-8.39,15.57,15.57,0,0,0-6.15-1.24,15.39,15.39,0,0,0-6.12,1.24,16.42,16.42,0,0,0-5,3.36,15.82,15.82,0,0,0-4.64,11.18v18.88h-3.93V162.84a19.47,19.47,0,0,1,1.55-7.7,19.72,19.72,0,0,1,10.5-10.54,19,19,0,0,1,7.67-1.55Zm29.46-8.83h3.92v9.89h14.28V148H405.66v24.4a5.66,5.66,0,0,0,1.74,4.15,5.76,5.76,0,0,0,4.24,1.74,5.91,5.91,0,0,0,5.87-5.89h3.94a10,10,0,0,1-.76,3.85,9.29,9.29,0,0,1-2.11,3.14,10.91,10.91,0,0,1-3.13,2.11,9.42,9.42,0,0,1-3.81.79,9.66,9.66,0,0,1-3.86-.79,9.89,9.89,0,0,1-5.26-5.25,9.64,9.64,0,0,1-.78-3.85V134.22Zm33.53,30.13a9.94,9.94,0,0,1-3.73-.71,9.44,9.44,0,0,1-3.1-2,9.19,9.19,0,0,1-2.12-2.94,9.55,9.55,0,0,1-.87-3.66,8.62,8.62,0,0,1,0-2.27,9.64,9.64,0,0,1,.87-3.67,9.14,9.14,0,0,1,2.12-2.93,9.63,9.63,0,0,1,3.1-2,10,10,0,0,1,3.73-.72h14.2v3.93h-14.2a5.88,5.88,0,0,0-5.9,5.52,7.15,7.15,0,0,0,0,2,5.87,5.87,0,0,0,5.9,5.51h5.67a9.92,9.92,0,0,1,3.74.72,9.68,9.68,0,0,1,3.09,2,10.14,10.14,0,0,1,2.12,3,9.11,9.11,0,0,1,.86,3.66v2.26a8.94,8.94,0,0,1-.79,3.77,9.84,9.84,0,0,1-2.15,3.07,10.34,10.34,0,0,1-3.13,2.07,9.75,9.75,0,0,1-3.82.75H426.29V177.8h14.57a5.93,5.93,0,0,0,5.89-5,3,3,0,0,1,0-.5,4.38,4.38,0,0,0,0-.5v-1.58a5.94,5.94,0,0,0-1.82-4.15,5.64,5.64,0,0,0-4.15-1.74Z"/><rect x="188.73" y="35.25" width="3.93" height="92.6"/><path class="cls-1" d="M143,200.21v-1.43H131.35a1.9,1.9,0,0,0-.85.17,2.32,2.32,0,0,0-1.18,1.21,2,2,0,0,0-.18.88h1.43a.83.83,0,0,1,.25-.61,1,1,0,0,1,.6-.22h4.05V216H137V200.21Zm4-2.57H145.6V215.9H147V207a8.41,8.41,0,0,1,1.8-1.89,4.06,4.06,0,0,1,2.29-.65,3,3,0,0,1,2.11.68,2.81,2.81,0,0,1,.73,2.13v6.67a2.2,2.2,0,0,0,2.24,2.23,2.16,2.16,0,0,0,1.89-1l-1.16-.77a.81.81,0,0,1-.73.37.79.79,0,0,1-.6-.25.82.82,0,0,1-.25-.6v-6.74a4,4,0,0,0-1-3,4.23,4.23,0,0,0-3.21-1.06,4.65,4.65,0,0,0-2.24.56,5,5,0,0,0-1.85,1.66v-7.7Zm13.87.53a1.07,1.07,0,0,0-1.05,1.08,1.06,1.06,0,0,0,1.05,1.06,1.07,1.07,0,1,0,0-2.14Zm.75,5.24h-1.38V214a2.26,2.26,0,0,0,.66,1.62,2.21,2.21,0,0,0,1.58.64,2.42,2.42,0,0,0,1.09-.25,2.29,2.29,0,0,0,.79-.76l-1.15-.74a.86.86,0,0,1-.73.37.82.82,0,0,1-.6-.25.87.87,0,0,1-.26-.63V203.41Zm3.63.69a4.1,4.1,0,0,1,1,3V216h1.38V207a8.19,8.19,0,0,1,1.82-1.88,4,4,0,0,1,2.28-.66,2.92,2.92,0,0,1,2.14.71,3.24,3.24,0,0,1,.7,2.32V214a2.29,2.29,0,0,0,.65,1.62,2.34,2.34,0,0,0,2.67.4,2.63,2.63,0,0,0,.8-.76l-1.13-.75a.92.92,0,0,1-.73.38.8.8,0,0,1-.6-.29.77.77,0,0,1-.27-.6v-7.15a3.89,3.89,0,0,0-1.11-2.72,4.33,4.33,0,0,0-3.12-1,5,5,0,0,0-4.25,2.4,3.92,3.92,0,0,0-.45-1.25,3,3,0,0,0-.92-1.06l-.86.82Zm17.28-6.41h-1.37v18.25h1.37v-5h4.28l2.42,4a2.12,2.12,0,0,0,.82.78,2.26,2.26,0,0,0,1.09.27,2.11,2.11,0,0,0,1.56-.65,2.25,2.25,0,0,0,.67-1.51l-1.4-.09a.72.72,0,0,1-.25.59.9.9,0,0,1-1.24,0l-2.31-3.69c.35-.21.65-.4.93-.6a3.55,3.55,0,0,0,.71-.74,4.21,4.21,0,0,0,.47-1,5,5,0,0,0,.23-1.34,3.84,3.84,0,0,0-1.06-2.74,4,4,0,0,0-3-1,4.09,4.09,0,0,0-2.39.68,4.78,4.78,0,0,0-1.57,1.81v-8Zm.06,11.92a7.22,7.22,0,0,1,.27-1.91,6,6,0,0,1,.76-1.66,4.32,4.32,0,0,1,1.23-1.18,3,3,0,0,1,1.64-.45,2.6,2.6,0,0,1,2,.67,2.81,2.81,0,0,1,.71,1.77,3.83,3.83,0,0,1-.25,1,2.13,2.13,0,0,1-.46.74,2.92,2.92,0,0,1-1,.68,4.65,4.65,0,0,1-2,.33Zm22.17-11.11a2.3,2.3,0,0,0-1,.21,2.22,2.22,0,0,0-.86.6,2.29,2.29,0,0,0-.54.82,2.4,2.4,0,0,0-.2,1h1.4a1.25,1.25,0,0,1,1.22-1.23h.49v16l1.33.16c.5,0,.78.08,1.58.1s1.66,0,1.71,0a8.77,8.77,0,0,0,2.89-.36,5.07,5.07,0,0,0,1.84-1,4.2,4.2,0,0,0,1.15-1.55,5,5,0,0,0,.4-2,4.65,4.65,0,0,0-.7-2.54,4.83,4.83,0,0,0-1.94-1.78l-.4-.15c-.07,0-.2,0-.39-.1l.38-.13a1.18,1.18,0,0,0,.36-.15,3.69,3.69,0,0,0,1.92-3.39,4.54,4.54,0,0,0-.37-1.86,4,4,0,0,0-1-1.41,4.57,4.57,0,0,0-1.61-1,6.35,6.35,0,0,0-2.06-.32Zm2.06,1.41h3.87a4,4,0,0,1,2.36.87,3,3,0,0,1,.86,2.25,2.88,2.88,0,0,1-1,2.31,4.1,4.1,0,0,1-2.62.83h-2.2v1.38h2.38a5.36,5.36,0,0,1,1.71.27,3.73,3.73,0,0,1,1.3.76,3.25,3.25,0,0,1,.91,1.19,3.36,3.36,0,0,1,.31,1.45,3.31,3.31,0,0,1-1.17,2.66c-.75.63-1.77,1-3.79,1-.55,0-.75,0-1.3-.06l-1.64-.07v-14.8Zm21.88,13.79a15.33,15.33,0,0,1-1.92.86,5.87,5.87,0,0,1-2,.36,4,4,0,0,1-3-1,4.8,4.8,0,0,1-1.25-3h3a11.69,11.69,0,0,0,2.06-.19,6,6,0,0,0,1.76-.66,4,4,0,0,0,1.24-1.21A3.31,3.31,0,0,0,229,207a3.91,3.91,0,0,0-.34-1.62,3.84,3.84,0,0,0-1-1.2,4.71,4.71,0,0,0-1.46-.76,5.9,5.9,0,0,0-1.76-.26,4.47,4.47,0,0,0-2.24.57,5.08,5.08,0,0,0-1.7,1.43,6.54,6.54,0,0,0-1.11,2.09,7.51,7.51,0,0,0-.4,2.49,7.14,7.14,0,0,0,1.43,4.84,5.33,5.33,0,0,0,4.3,1.61,7.52,7.52,0,0,0,2.54-.43,8.39,8.39,0,0,0,2-1l-.64-1.06Zm-8.23-4.06a6.84,6.84,0,0,1,.28-1.91,5.38,5.38,0,0,1,.83-1.66,4.66,4.66,0,0,1,1.25-1.18,3.19,3.19,0,0,1,1.66-.46,3.52,3.52,0,0,1,2.24.68,1.9,1.9,0,0,1,.88,1.92,2.83,2.83,0,0,1-.15.9,1.9,1.9,0,0,1-.6.85,3.29,3.29,0,0,1-1.26.6,6.7,6.7,0,0,1-2.09.26Zm11.17-5.28a5.38,5.38,0,0,1,.92.88,1.59,1.59,0,0,1,.46.95v6.31a3.52,3.52,0,0,0,.87,2.51,3.92,3.92,0,0,0,2.62,1.13,2.71,2.71,0,0,0-.61.61,5.22,5.22,0,0,0-.37.83,6.31,6.31,0,0,0-.23.88,7.06,7.06,0,0,0,0,.75,4.24,4.24,0,0,0,.25,1.44,4.37,4.37,0,0,0,.71,1.25,3.52,3.52,0,0,0,1.13.9,2.92,2.92,0,0,0,1.45.33,5.72,5.72,0,0,0,1.42-.2,3.3,3.3,0,0,0,1.25-.7,3.66,3.66,0,0,0,.89-1.3,5.5,5.5,0,0,0,.34-2v-15.5h-1.36v8.26a2.17,2.17,0,0,1-.14.66l-.23.47a6.58,6.58,0,0,1-1.66,1.51,3.66,3.66,0,0,1-2.07.55,2.93,2.93,0,0,1-2.13-.72,3.14,3.14,0,0,1-.7-2.29v-5.66a2.11,2.11,0,0,0-.23-.95,4.69,4.69,0,0,0-.5-.86,7,7,0,0,0-.65-.68c-.23-.2-.46-.37-.63-.51l-.75,1.17Zm9.72,10.13V219a3.09,3.09,0,0,1-.65,2,2.31,2.31,0,0,1-1.92.79,2.22,2.22,0,0,1-.93-.21,2.44,2.44,0,0,1-.7-.58,3.23,3.23,0,0,1-.43-.85,3.76,3.76,0,0,1-.15-1,2.87,2.87,0,0,1,.45-1.69,4.51,4.51,0,0,1,1.47-1.15l1.23-.65a5.31,5.31,0,0,0,1.35-1l.28-.25Zm10.73-11.3a6.68,6.68,0,0,0-2.56.51,5.52,5.52,0,0,0-2,1.38,5.89,5.89,0,0,0-1.29,2.09,7.11,7.11,0,0,0-.46,2.6,7,7,0,0,0,.46,2.58,6,6,0,0,0,1.29,2,5.45,5.45,0,0,0,2,1.35,6.49,6.49,0,0,0,2.56.48,6.14,6.14,0,0,0,2.55-.5,5.88,5.88,0,0,0,2-1.36,6.18,6.18,0,0,0,1.25-2.06,5.69,5.69,0,0,0,.45-2.61,7.05,7.05,0,0,0-.45-2.59,6.39,6.39,0,0,0-1.25-2.06,5.88,5.88,0,0,0-2-1.36,6.48,6.48,0,0,0-2.55-.49Zm0,1.31a5.55,5.55,0,0,1,2,.36,4.31,4.31,0,0,1,1.5,1.06,4.26,4.26,0,0,1,1,1.61,4.66,4.66,0,0,1,.33,2.11,6.09,6.09,0,0,1-.33,2.14,4.27,4.27,0,0,1-1,1.65,4,4,0,0,1-1.5,1.08,4.66,4.66,0,0,1-2,.41,5.08,5.08,0,0,1-2-.38,4.65,4.65,0,0,1-1.5-1.06,4.59,4.59,0,0,1-1-1.66,6.7,6.7,0,0,1-.34-2.13,6.57,6.57,0,0,1,.34-2.11,4.81,4.81,0,0,1,1-1.65,4.59,4.59,0,0,1,1.5-1,4.91,4.91,0,0,1,2-.39Zm8.52-.4a4,4,0,0,1,1,3V216H263V207a8.37,8.37,0,0,1,1.81-1.88,4,4,0,0,1,2.29-.66,2.9,2.9,0,0,1,2.13.71,3.19,3.19,0,0,1,.71,2.32V214a2.28,2.28,0,0,0,3.32,2,2.63,2.63,0,0,0,.8-.76l-1.13-.75a.91.91,0,0,1-.73.38.79.79,0,0,1-.6-.29.81.81,0,0,1-.28-.6v-7.15a3.85,3.85,0,0,0-1.11-2.72,4.29,4.29,0,0,0-3.11-1,5,5,0,0,0-4.25,2.4,4.17,4.17,0,0,0-.45-1.25,2.82,2.82,0,0,0-.94-1.06l-.85.82ZM286,197.69h-1.37v5.74l-1.41-.15c-.56-.05-1.18-.09-1.88-.09a6,6,0,0,0-2.42.51,5.24,5.24,0,0,0-1.83,1.38,6,6,0,0,0-1.19,2.09,7.79,7.79,0,0,0-.43,2.6,8.73,8.73,0,0,0,.36,2.5,5.65,5.65,0,0,0,1.06,2.07,4.66,4.66,0,0,0,1.69,1.38,4.88,4.88,0,0,0,2.25.5,5,5,0,0,0,2.26-.5,3.77,3.77,0,0,0,1.56-1.45,2.26,2.26,0,0,0,.75,1.38,2,2,0,0,0,1.49.57,2,2,0,0,0,1.07-.28,1.91,1.91,0,0,0,.79-.73l-1.13-.77a.83.83,0,0,1-1.33.12.84.84,0,0,1-.29-.6V197.69Zm-1.37,13.55a3.56,3.56,0,0,1-1.24,2.77,4,4,0,0,1-1.22.68,4.34,4.34,0,0,1-1.34.23,3.28,3.28,0,0,1-1.71-.45,3.79,3.79,0,0,1-1.23-1.16,4.8,4.8,0,0,1-.73-1.66,7.07,7.07,0,0,1-.25-2,6.07,6.07,0,0,1,.33-2.11,4.63,4.63,0,0,1,.9-1.65,4,4,0,0,1,1.4-1,4.11,4.11,0,0,1,1.81-.39c.71,0,1.37,0,2,.09a7.38,7.38,0,0,1,1.31.17v6.48Zm14.15-10.75a.86.86,0,0,1,.78-.43,1.16,1.16,0,0,1,.49.1,1.26,1.26,0,0,1,.29.27.77.77,0,0,1,.11.31l0,.27v8.23a7.6,7.6,0,0,0,.48,2.81,6.17,6.17,0,0,0,1.35,2.22,5.8,5.8,0,0,0,2.14,1.43,7.32,7.32,0,0,0,2.76.5,7.5,7.5,0,0,0,2.75-.5,6,6,0,0,0,2.14-1.46,5.91,5.91,0,0,0,1.34-2.19,7.38,7.38,0,0,0,.49-2.81V198.75h-1.54v10.49a7,7,0,0,1-.37,2.34,4.81,4.81,0,0,1-1.07,1.73,4.5,4.5,0,0,1-1.59,1.11,6,6,0,0,1-2.19.4,5.6,5.6,0,0,1-2.12-.4,4.43,4.43,0,0,1-1.61-1.11,5.07,5.07,0,0,1-1.06-1.73,6.76,6.76,0,0,1-.37-2.34V201a2.57,2.57,0,0,0-.18-.95,2.22,2.22,0,0,0-1.35-1.33,2.38,2.38,0,0,0-.91-.18,2.83,2.83,0,0,0-1.16.27,2.89,2.89,0,0,0-.9.81l1.26.86Zm17.94,14.27a7.18,7.18,0,0,0,1.86,1,6.68,6.68,0,0,0,2.39.43,6.54,6.54,0,0,0,1.56-.17,5.2,5.2,0,0,0,1.5-.58,3.09,3.09,0,0,0,1.11-1.13,3.37,3.37,0,0,0,.43-1.76,2.89,2.89,0,0,0-.5-1.76,4,4,0,0,0-1.23-1.16,8.68,8.68,0,0,0-1.6-.75c-.59-.24-1.11-.43-1.62-.65a4.37,4.37,0,0,1-1.25-.82,1.5,1.5,0,0,1-.49-1.19,1.66,1.66,0,0,1,.53-1.21,2,2,0,0,1,1.52-.54,7.29,7.29,0,0,1,1.45.2,15.16,15.16,0,0,1,1.69.56l.27-1.28a4.16,4.16,0,0,0-1.58-.57,8.16,8.16,0,0,0-1.66-.22,4.32,4.32,0,0,0-1.54.26,3.75,3.75,0,0,0-1.15.69,2.57,2.57,0,0,0-.73.94,2.65,2.65,0,0,0-.25,1.17,2.7,2.7,0,0,0,.49,1.7,3.91,3.91,0,0,0,1.25,1.09,11.75,11.75,0,0,0,1.6.73c.58.18,1.11.4,1.61.61a4.32,4.32,0,0,1,1.23.86,1.83,1.83,0,0,1,.5,1.34,2.42,2.42,0,0,1-.27,1.18,2,2,0,0,1-.73.71,3.3,3.3,0,0,1-1,.35,4.63,4.63,0,0,1-1,.1,5.82,5.82,0,0,1-2.16-.38,10.51,10.51,0,0,1-1.59-.84l-.71,1.06Zm10.89-10.4a5.43,5.43,0,0,1,.93.88,1.57,1.57,0,0,1,.45.95v6.31a3.81,3.81,0,0,0,1.11,2.71,4.3,4.3,0,0,0,3.12,1,4.93,4.93,0,0,0,4.07-2.17,2.27,2.27,0,0,0,.68,1.58,2.26,2.26,0,0,0,2.65.4,2.6,2.6,0,0,0,.82-.73l-1.16-.77a.86.86,0,0,1-.73.37.88.88,0,0,1-.61-.27.86.86,0,0,1-.27-.61V203.41h-1.36v8.94a8.7,8.7,0,0,1-1.81,1.86,4,4,0,0,1-2.28.65,2.89,2.89,0,0,1-2.14-.72,3.14,3.14,0,0,1-.71-2.29v-5.66a2.38,2.38,0,0,0-.2-.95,6.42,6.42,0,0,0-.53-.86,5.23,5.23,0,0,0-.65-.68c-.22-.2-.45-.37-.62-.51l-.76,1.17Zm27.35,10.08a.82.82,0,0,1-.73.4.95.95,0,0,1-.88-.88V203.43h-1.38l-1.41-.15c-.56-.05-1.19-.09-1.89-.09a6.06,6.06,0,0,0-2.42.51,5.43,5.43,0,0,0-1.83,1.38,6.11,6.11,0,0,0-1.18,2.09,8.05,8.05,0,0,0-.42,2.6,9.1,9.1,0,0,0,.35,2.5,6,6,0,0,0,1.05,2.07,4.74,4.74,0,0,0,1.69,1.38,5,5,0,0,0,2.27.5,4.91,4.91,0,0,0,2.25-.5,3.89,3.89,0,0,0,1.56-1.45,2.14,2.14,0,0,0,.76,1.38,2,2,0,0,0,1.48.57,2.08,2.08,0,0,0,1.08-.28,2,2,0,0,0,.78-.73l-1.13-.77Zm-3-3.2a3.48,3.48,0,0,1-.36,1.61,3.57,3.57,0,0,1-.87,1.16,4.07,4.07,0,0,1-1.24.68,4.22,4.22,0,0,1-1.32.23,3.29,3.29,0,0,1-1.72-.45,3.89,3.89,0,0,1-1.23-1.16,5,5,0,0,1-.72-1.66,6.72,6.72,0,0,1-.26-2,6.07,6.07,0,0,1,.33-2.11,4.63,4.63,0,0,1,.9-1.65,4,4,0,0,1,1.41-1,4,4,0,0,1,1.81-.39,16,16,0,0,1,1.93.11,11.36,11.36,0,0,0,1.34.09v6.54Zm7.93-13.51h-1.38v16.21a2.13,2.13,0,0,0,.18.88,2.59,2.59,0,0,0,.48.72,2.51,2.51,0,0,0,.7.49,2.42,2.42,0,0,0,.88.17,2,2,0,0,0,1.06-.28,2.31,2.31,0,0,0,.83-.73l-1.15-.75a.85.85,0,0,1-1.34.1.82.82,0,0,1-.26-.6Z"/><path class="cls-2" d="M285.45,48.67C289.67,22.21,274.87,5.86,254.59.88c-10.75-1.83-19.92,1.41-29.47,8.26C205.06,23.53,194,44.7,189.24,69.51c-6.1,56.43-35.67,43.61-38.15,40.19,9,8.84,17.67,8.38,23.73,4.16,11.89-8.29,17.14-32.93,19.06-42.93C204.72,14.76,268.84-12.26,285.45,48.67Z"/><path class="cls-3" d="M188.05,80.53c-14.62-1.76-27.11-2.39-34.27,2.74a17.75,17.75,0,0,0,20.69,28.84C181.62,107,185,95,188.05,80.53Z"/><path class="cls-3" d="M250.18,0c26.49,4.45,45.24,27.85,43.39,48.69a42.39,42.39,0,0,1-17.21,27.78C256.21,90.92,227.23,87,202.13,83.65c-64.36-12.26-54.82,20.22-52.38,23.66a19.07,19.07,0,0,1-3.4-14.18A18.57,18.57,0,0,1,153.91,81c9.58-6.88,26.89-4.55,46.5-1.91,22.85,3.07,49.2,6.62,67.21-6.3C298.53,50.84,288,9.22,250.18,0Z"/><path class="cls-3" d="M131.18,112.18a8.6,8.6,0,0,0,10,14C153.75,117.17,143.73,103.19,131.18,112.18Z"/><path class="cls-3" d="M120.21,127.42a3.12,3.12,0,0,0,3.63,5.08C128.39,129.25,124.75,124.17,120.21,127.42Z"/><path class="cls-1" d="M150.84,128.9h0v-2H184v4H154.76v21.69h25.53v4H154.76v21.68H184v3.93H150.84V128.9ZM0,126.94H3.93v55.22H0V126.94Zm6.73,27.88,27.33,27.34h5.6l-7.79-7.78L9.52,152l22.35-22.35,2.79-2.73H29.08L6.73,149.23h0L3.93,152Z"/></g></g></svg>