<svg width="16" height="16" viewBox="0 0 16 16" fill="none" xmlns="http://www.w3.org/2000/svg">
<rect width="16" height="16" fill="#E2E6EE"/>
<path d="M6.52709 11.5563C5.68452 11.5563 4.92492 11.0487 4.60243 10.2703C4.27994 9.49189 4.45806 8.59587 5.05376 7.99999L5.93793 7.11583L6.52709 7.70499L5.64334 8.58874C5.32753 8.90455 5.2042 9.36485 5.31979 9.79625C5.43538 10.2277 5.77235 10.5646 6.20375 10.6802C6.63515 10.7958 7.09545 10.6725 7.41126 10.3567L8.29501 9.47291L8.88418 10.0625L8.00043 10.9462C7.61046 11.3381 7.07995 11.5578 6.52709 11.5563ZM6.82168 9.76749L6.23251 9.17833L9.17876 6.23208L9.76793 6.82124L6.82209 9.76708L6.82168 9.76749ZM10.0629 8.88374L9.47334 8.29458L10.3571 7.41083C10.6772 7.09596 10.8038 6.6336 10.6889 6.19957C10.5739 5.76553 10.2349 5.42651 9.80093 5.31143C9.36692 5.19634 8.90453 5.32288 8.58959 5.64291L7.70543 6.52666L7.11626 5.93749L8.00043 5.05333C8.81504 4.24581 10.1292 4.24869 10.9402 5.05976C11.7513 5.87084 11.7542 7.18496 10.9467 7.99958L10.0629 8.88333V8.88374Z" fill="#79819A"/>
</svg>
