<svg width="16" height="17" viewBox="0 0 16 17" fill="none" xmlns="http://www.w3.org/2000/svg">
<g clip-path="url(#clip0_12_345)">
<rect y="0.5" width="16" height="16" fill="#E2E6EE"/>
<path d="M8.00001 12.25C7.47373 11.8011 6.98592 11.309 6.54168 10.7787C5.87501 9.9825 5.08334 8.79666 5.08334 7.66666C5.08275 6.48648 5.79345 5.42224 6.88379 4.97058C7.97413 4.51892 9.22921 4.76885 10.0633 5.60375C10.6119 6.14983 10.9191 6.89266 10.9167 7.66666C10.9167 8.79666 10.125 9.9825 9.45834 10.7787C9.0141 11.309 8.52629 11.8011 8.00001 12.25ZM8.00001 6.41666C7.55343 6.41666 7.14077 6.65491 6.91748 7.04166C6.69419 7.42842 6.69419 7.90491 6.91748 8.29167C7.14077 8.67842 7.55343 8.91667 8.00001 8.91667C8.69037 8.91667 9.25001 8.35702 9.25001 7.66666C9.25001 6.97631 8.69037 6.41666 8.00001 6.41666Z" fill="#79819A"/>
</g>
<defs>
<clipPath id="clip0_12_345">
<rect y="0.5" width="16" height="16" rx="8" fill="white"/>
</clipPath>
</defs>
</svg>
