<svg width="16" height="16" viewBox="0 0 16 16" fill="none" xmlns="http://www.w3.org/2000/svg">
<rect width="16" height="16" fill="#E2E6EE"/>
<path d="M10.9156 11.3333C7.36077 11.3384 4.66286 8.60813 4.66666 5.08438C4.66666 4.85427 4.85321 4.66667 5.08333 4.66667H6.18306C6.38955 4.66667 6.56496 4.81839 6.59528 5.02264C6.66795 5.51217 6.81048 5.98874 7.01853 6.4378L7.06134 6.53022C7.12088 6.65872 7.08052 6.8114 6.96527 6.8937C6.6247 7.13692 6.49454 7.62649 6.75986 8.00849C7.09281 8.48785 7.51251 8.90746 7.99177 9.24026C8.37375 9.50551 8.86324 9.37537 9.10645 9.03486C9.18881 8.91955 9.34158 8.87917 9.47015 8.93873L9.56215 8.98135C10.0112 9.18938 10.4878 9.33191 10.9774 9.40457C11.1817 9.43488 11.3333 9.61029 11.3333 9.81678V10.9167C11.3333 11.1468 11.1463 11.3333 10.9162 11.3333L10.9156 11.3333Z" fill="#79819A"/>
</svg>
